<?xml version="1.0"?>
<svg xmlns="http://www.w3.org/2000/svg" xmlns:xlink="http://www.w3.org/1999/xlink" xmlns:svgjs="http://svgjs.com/svgjs" version="1.1" width="512" height="512" x="0" y="0" viewBox="0 0 609.623 609.623" style="enable-background:new 0 0 512 512" xml:space="preserve" class=""><g><g xmlns="http://www.w3.org/2000/svg"><g id="Page-1_65_"><g id="_x30_66---Chauffeur"><g clip-rule="evenodd" fill-rule="evenodd"><path id="Path_157_" d="m284.491 304.72h40.642c5.611 0 10.16-4.549 10.16-10.16s-4.549-10.16-10.16-10.16h-40.642c-5.611 0-10.16 4.549-10.16 10.16-.001 5.611 4.548 10.16 10.16 10.16z" fill="#ffffff" data-original="#000000" style="" class=""/><path id="Path_156_" d="m314.972 314.88h-20.321c-5.611 0-10.16 4.549-10.16 10.16s4.549 10.16 10.16 10.16h20.321c5.611 0 10.16-4.549 10.16-10.16s-4.549-10.16-10.16-10.16z" fill="#ffffff" data-original="#000000" style="" class=""/><path id="Path_155_" d="m274.33 203.116c0-5.611-4.549-10.16-10.16-10.16h-20.321c-5.611 0-10.16 4.549-10.16 10.16s4.549 10.16 10.16 10.16c0 5.611 4.549 10.16 10.16 10.16s10.16-4.549 10.16-10.16c5.612 0 10.161-4.548 10.161-10.16z" fill="#ffffff" data-original="#000000" style="" class=""/><path id="Path_154_" d="m345.453 213.276c0 5.611 4.549 10.16 10.16 10.16s10.16-4.549 10.16-10.16c5.611 0 10.16-4.549 10.16-10.16s-4.549-10.16-10.16-10.16h-20.321c-5.611 0-10.16 4.549-10.16 10.16 0 5.612 4.549 10.16 10.161 10.16z" fill="#ffffff" data-original="#000000" style="" class=""/><path id="Path_153_" d="m294.651 264.078h20.321c5.611 0 10.16-4.549 10.16-10.16s-4.549-10.16-10.16-10.16h-20.321c-5.611 0-10.16 4.549-10.16 10.16s4.549 10.16 10.16 10.16z" fill="#ffffff" data-original="#000000" style="" class=""/></g><path id="Shape_197_" d="m74.1 470.263c-26.183 26.163-43.619 52.996-43.619 98.627v20.412c0 11.223 9.098 20.321 20.321 20.321h508.019c11.223 0 20.321-9.098 20.321-20.321v-20.412c0-45.671-17.435-72.464-43.619-98.627-28.591-28.581-119.334-55.781-141.788-62.182-8.8-22.916-11.937-47.618-9.144-72.007l24.822-21.733c11.013-9.649 17.327-23.581 17.323-38.223v-13.056c23.637-4.792 40.626-25.572 40.626-49.689s-16.989-44.897-40.626-49.689l8.687-34.759 36.791-18.4c15.52-7.754 25.407-23.528 25.621-40.875s-9.282-33.361-24.605-41.495c-24.893-12.843-74.323-28.155-168.419-28.155s-143.525 15.312-168.408 28.154c-15.33 8.129-24.831 24.144-24.617 41.495s10.107 33.127 25.633 40.876l36.791 18.4 8.677 34.759c-23.637 4.792-40.626 25.572-40.626 49.689s16.989 44.897 40.626 49.689v13.056c.004 14.647 6.33 28.58 17.354 38.223l24.822 21.733c2.793 24.388-.344 49.091-9.144 72.007-22.486 6.401-113.228 33.601-141.819 62.182zm68.663 119.039h-91.961v-20.412c0-38.813 14.407-61.013 37.665-84.26 13.534-13.534 47.266-28.114 79.251-39.625l-35.886 55.059c-3.69 5.65-4.334 12.763-1.719 18.984s8.147 10.738 14.765 12.056l11.583 2.296c-7.885 17.661-12.524 36.597-13.698 55.902zm51.148-147.326 21.723 21.723c-19.939 13.19-36.749 30.585-49.247 50.964l-17.567-3.526zm80.419 116.845c-9.909 7.476-16.743 18.317-19.213 30.481h-51.351c3.889-40.493 31.71-74.691 70.564-86.739zm80.176 30.481c-2.465-12.167-9.3-23.009-19.213-30.481l-.122-56.39c38.91 12.075 66.774 46.319 70.686 86.871zm71.803 0c-3.973-49.468-37.66-91.536-85.063-106.227-6.116-1.933-12.789-.798-17.923 3.048-5.224 3.854-8.32 9.948-8.352 16.439v61.745c-.004 3.633 1.934 6.992 5.08 8.809 6.203 3.647 10.904 9.386 13.259 16.185h-56.949c2.342-6.792 7.024-12.529 13.208-16.185 3.147-1.817 5.084-5.176 5.08-8.809v-61.745c-.019-6.506-3.117-12.618-8.352-16.48-5.128-3.849-11.8-4.984-17.913-3.048-47.42 14.693-81.114 56.781-85.073 106.267h-20.229c5.201-74.446 67.11-132.181 141.737-132.181s136.536 57.735 141.737 132.181h-20.247zm-189.643-178.721c6.336-17.953 9.609-36.844 9.683-55.882l9.805 8.575c9.252 8.095 21.125 12.56 33.417 12.568h30.481c12.303-.001 24.188-4.467 33.448-12.568l9.805-8.575c.074 19.038 3.347 37.929 9.683 55.882l-68.176 25.624zm284.49 74.049c23.257 23.247 37.664 45.447 37.664 84.26v20.412h-91.962c-1.163-19.296-5.789-38.225-13.656-55.882l11.583-2.296c6.623-1.318 12.158-5.839 14.772-12.066 2.613-6.227 1.963-13.345-1.736-18.994l-35.846-55.039c31.914 11.491 65.646 26.072 79.18 39.625v-.02zm-60.342 26.539-17.577 3.495c-12.496-20.384-29.306-37.784-49.247-50.975l21.723-21.713zm-74.242-84.006c3.424.955 7.448 2.134 11.776 3.434l-22.749 22.749c-9.467-4.606-19.363-8.272-29.546-10.943zm-206.632-318.071-33.529-16.744c-8.816-4.39-14.371-13.409-14.326-23.257-.118-9.584 5.15-18.424 13.635-22.881 22.942-11.806 69.08-25.889 159.091-25.889s136.2 14.082 159.101 25.899c8.476 4.46 13.739 13.294 13.625 22.871.032 9.856-5.544 18.873-14.377 23.247l-33.529 16.744c-11.583-11.39-42.521-27.799-124.82-27.799s-113.237 16.409-124.871 27.809zm235.884 14.611-7.681 30.735c-34.029 6.585-68.691 9.311-103.331 8.128-34.64 1.18-69.302-1.547-103.331-8.128l-7.63-30.481c5.72-5.842 29.181-22.353 110.961-22.353 82.898 0 105.881 16.968 111.012 22.099zm-202.192 175.347c-6.619-5.783-10.419-14.143-10.425-22.932v-22.2c0-5.611-4.549-10.16-10.16-10.16-14.843.124-27.59-10.522-30.112-25.149s5.924-28.928 19.951-33.781v18.289c0 5.611 4.549 10.16 10.16 10.16s10.16-4.549 10.16-10.16v-27.514c33.561 5.638 67.582 8.077 101.604 7.285 34.022.792 68.043-1.647 101.604-7.285v27.514c0 5.611 4.549 10.16 10.16 10.16s10.16-4.549 10.16-10.16v-18.289c14.027 4.853 22.473 19.154 19.951 33.781s-15.269 25.274-30.112 25.149c-5.611 0-10.16 4.549-10.16 10.16v22.2c-.001 8.786-3.793 17.145-10.404 22.932l-55.882 48.922c-5.557 4.866-12.691 7.548-20.077 7.549h-30.481c-7.386-.001-14.52-2.683-20.077-7.549zm49.959 143.353c-10.183 2.671-20.08 6.336-29.546 10.943l-22.769-22.749c4.328-1.301 8.352-2.479 11.776-3.434z" fill="#ffffff" data-original="#000000" style="" class=""/></g></g></g></g></svg>
